HIERARCHY
ROOT ui
{
	 OFFSET 0 0 0
	 CHANNELS 3 XPosition YPosition Z Position
	 EndSite
	 {
	 OFFSET 0 -1 0
	 }
}
ROOT li
{
	 OFFSET 0 0 0
	 CHANNELS 3 XPosition YPosition Z Position
	 EndSite
	 {
	 OFFSET 0 -1 0
	 }
}
ROOT ul
{
	 OFFSET 0 0 0
	 CHANNELS 3 XPosition YPosition Z Position
	 EndSite
	 {
	 OFFSET 0 -1 0
	 }
}
ROOT ll
{
	 OFFSET 0 0 0
	 CHANNELS 3 XPosition YPosition Z Position
	 EndSite
	 {
	 OFFSET 0 -1 0
	 }
}
ROOT tt
{
	 OFFSET 0 0 0
	 CHANNELS 3 XPosition YPosition Z Position
	 EndSite
	 {
	 OFFSET 0 -1 0
	 }
}
ROOT tb
{
	 OFFSET 0 0 0
	 CHANNELS 3 XPosition YPosition Z Position
	 EndSite
	 {
	 OFFSET 0 -1 0
	 }
}
ROOT td
{
	 OFFSET 0 0 0
	 CHANNELS 3 XPosition YPosition Z Position
	 EndSite
	 {
	 OFFSET 0 -1 0
	 }
}
ROOT v
{
	 OFFSET 0 0 0
	 CHANNELS 3 XPosition YPosition Z Position
	 EndSite
	 {
	 OFFSET 0 -1 0
	 }
}
ROOT bn
{
	 OFFSET 0 0 0
	 CHANNELS 3 XPosition YPosition Z Position
	 EndSite
	 {
	 OFFSET 0 -1 0
	 }
}
MOTION
Frames: 21
Frame Time: 0.002
0.024285150527954102	-5.703240036964417E-4	0		0.5137444458007813	-2.373402099609375	0		-0.993765380859375	0.3281713562011719	0		-0.5632977905273437	-2.756835205078125	0		1.773369384765625	-0.397595703125	0		3.3273984375	-0.08352793121337891	0		4.44198095703125	0.07529946899414063	0		5.93697265625	0.3038633728027344	0		-0.42966561889648436	5.84112646484375	0		
-0.028865751266479493	-0.001390570044517517	0		0.5037426452636719	-2.363890380859375	0		-0.9198983764648437	0.3273978271484375	0		-0.44179620361328126	-2.780349609375	0		1.779147216796875	-0.4033373413085938	0		3.327271728515625	-0.08318785858154297	0		4.44291650390625	0.07961634063720703	0		5.93688232421875	0.3044218444824219	0		-0.4287846984863281	5.83947607421875	0		
0.02095014190673828	-0.0027873098850250246	0		0.46250787353515627	-2.366885498046875	0		-0.9781447143554688	0.32267462158203125	0		-0.5629315185546875	-2.776104248046875	0		1.7879345703125	-0.406112548828125	0		3.3419521484375	-0.09306481170654297	0		4.44275439453125	0.07996257019042968	0		5.9367666015625	0.3050038757324219	0		-0.4127882690429687	5.84760546875	0		
0.031785402297973636	-5.739880204200745E-4	0		0.5152463989257813	-2.37032275390625	0		-0.9161900024414062	0.33210552978515623	0		-0.42149951171875	-2.79990771484375	0		1.793860595703125	-0.3978335571289062	0		3.341375244140625	-0.05269109725952149	0		4.44097802734375	0.10734652709960937	0		5.93662744140625	0.30560409545898437	0		-0.4129466552734375	5.84799169921875	0		
0.023577766418457033	9.377920031547547E-4	0		0.51297802734375	-2.37190625	0		-0.994464599609375	0.32970477294921874	0		-0.43972207641601563	-2.79823876953125	0		1.79057275390625	-0.4014085693359375	0		3.326689208984375	-0.08210195922851563	0		4.436677734375	0.10277186584472656	0		5.94685595703125	0.2573817138671875	0		-0.42925872802734377	5.84063037109375	0		
-0.026657629013061523	0.0030999910831451417	0		0.5086317443847657	-2.376456787109375	0		-0.9266505126953125	0.33404833984375	0		-0.4450859680175781	-2.803768798828125	0		1.7872523193359375	-0.4049815673828125	0		3.324633056640625	-0.06870065307617187	0		4.43642138671875	0.10313788604736328	0		5.93628369140625	0.30683590698242186	0		-0.4284999084472656	5.84000732421875	0		
-0.028122638702392577	-0.007495913982391357	0		0.4813435668945312	-2.37465478515625	0		-0.9360665283203125	0.3265802001953125	0		-0.44064291381835935	-2.81945458984375	0		1.781064208984375	-0.39751132202148437	0		3.354117431640625	-0.0827920379638672	0		4.43123583984375	0.11057955932617188	0		5.93607373046875	0.3074546508789063	0		-0.42778167724609373	5.83938134765625	0		
0.019642982482910156	-8.578649759292602E-4	0		0.5069463500976562	-2.377677734375	0		-0.9323405151367188	0.33090316772460937	0		-0.5367955932617188	-2.805588623046875	0		1.792739501953125	-0.3963241271972656	0		3.32821630859375	-0.05402764892578125	0		4.438083984375	0.12283061981201172	0		5.95151171875	0.3057482604980469	0		-0.428091796875	5.83976416015625	0		
-0.027668479919433595	0.00424028491973877	0		0.4846683044433594	-2.36996875	0		-0.9276567993164062	0.33520098876953125	0		-0.439352783203125	-2.816729248046875	0		1.79542041015625	-0.3920068359375	0		3.32951220703125	-0.07469837188720703	0		4.43461328125	0.11723078155517579	0		5.9434072265625	0.30837188720703124	0		-0.4284461669921875	5.8401376953125	0		
0.023766359329223632	-0.0052035050392150875	0		0.51295751953125	-2.388057373046875	0		-0.94818115234375	0.3288743896484375	0		-0.4428448486328125	-2.820321044921875	0		1.794999267578125	-0.3916541748046875	0		3.353460693359375	-0.05072580337524414	0		4.4372861328125	0.12352616119384766	0		5.94310791015625	0.30895419311523437	0		-0.42884341430664064	5.8404990234375	0		
-0.02854649353027344	0.004944671154022217	0		0.5036312255859375	-2.378576416015625	0		-0.959466796875	0.3403912353515625	0		-0.44737442016601564	-2.82391259765625	0		1.8225516357421876	-0.390749267578125	0		3.326819580078125	-0.06198907852172852	0		4.43195263671875	0.13193173217773438	0		5.93493603515625	0.309808837890625	0		-0.4292814025878906	5.84084521484375	0		
0.010784424781799317	-0.006346182823181152	0		0.5010835571289063	-2.3812197265625	0		-0.9650210571289063	0.3367989807128906	0		-0.44890814208984375	-2.825568603515625	0		1.7940443115234375	-0.39099453735351564	0		3.3263251953125	-0.061672595977783205	0		4.4294287109375	0.1302759552001953	0		5.934583984375	0.3103421020507813	0		-0.4297572021484375	5.84117333984375	0		
-0.02769002151489258	-0.002451688051223755	0		0.47040032958984374	-2.390448974609375	0		-0.9655455932617187	0.33710824584960936	0		-0.43655130004882814	-2.832461181640625	0		1.796579345703125	-0.3867398376464844	0		3.3536416015625	-0.07180746459960938	0		4.4229970703125	0.13666249084472656	0		5.94988720703125	0.3085250244140625	0		-0.42831317138671876	5.83845068359375	0		
0.024783838272094728	-9.882040023803712E-4	0		0.522791015625	-2.393986083984375	0		-0.9660955200195313	0.33739486694335935	0		-0.562799560546875	-2.81122705078125	0		1.811103271484375	-0.38169268798828127	0		3.3603994140625	-0.051641994476318356	0		4.431662109375	0.15079515075683594	0		5.945818359375	0.29182806396484373	0		-0.42981884765625	5.8407509765625	0		
-0.025763454437255858	0.0010464899539947509	0		0.5103272399902343	-2.38654150390625	0		-0.9825687866210937	0.3439044494628906	0		-0.4495425720214844	-2.8227294921875	0		1.804642822265625	-0.37434375	0		3.32957080078125	-0.06792166137695313	0		4.41700244140625	0.14526420593261719	0		5.94541259765625	0.29225775146484373	0		-0.4313600769042969	5.84202783203125	0		
0.025511863708496094	-0.008521879196166992	0		0.5066670532226563	-2.391259521484375	0		-0.9922700805664062	0.3362823181152344	0		-0.5819402465820313	-2.809449951171875	0		1.8040631103515625	-0.3741109619140625	0		3.342974609375	-0.06890816497802735	0		4.421546875	0.15341415405273437	0		5.94132373046875	0.2754842529296875	0		-0.43192922973632814	5.8422646484375	0		
-0.034891921997070315	0.0036167030334472655	0		0.5040516967773437	-2.393018310546875	0		-0.9198751831054688	0.33436370849609376	0		-0.45174249267578126	-2.82426611328125	0		1.8065428466796876	-0.3699497680664062	0		3.361266845703125	-0.07699545288085938	0		4.41893505859375	0.1516499481201172	0		5.93306396484375	0.27612924194335936	0		-0.4315182189941406	5.84146044921875	0		
0.01943360710144043	-0.00304907488822937	0		0.514364501953125	-2.400003173828125	0		-0.993425537109375	0.33668072509765623	0		-0.5820724487304687	-2.807068359375	0		1.8120753173828126	-0.36286001586914063	0		3.341972900390625	-0.05852140426635742	0		4.4183603515625	0.1518307342529297	0		5.9441748046875	0.2933084106445312	0		-0.4320870361328125	5.84164599609375	0		
-0.028057306289672852	0.0018390849828720092	0		0.5178812255859375	-2.394905517578125	0		-0.9328362426757812	0.34589593505859373	0		-0.44778860473632814	-2.817997314453125	0		1.8155780029296875	-0.35876318359375	0		3.329074951171875	-0.08017472839355469	0		4.41701904296875	0.16600190734863282	0		5.94467724609375	0.3229583435058594	0		-0.43264126586914065	5.84180712890625	0		
0.013422573089599609	0.0023245670795440676	0		0.5064593505859375	-2.387599853515625	0		-0.9374281005859375	0.34209500122070313	0		-0.5791033325195313	-2.802833251953125	0		1.8150472412109375	-0.35862777709960936	0		3.364633056640625	-0.0745983657836914	0		4.417271484375	0.15212237548828125	0		5.94429931640625	0.3231894836425781	0		-0.4331693115234375	5.841943359375	0		
0.017854249954223633	-0.0026401760578155515	0		0.5018917236328125	-2.39242529296875	0		-0.9419797973632813	0.33826971435546876	0		-0.45084188842773437	-2.819717529296875	0		1.8176185302734376	-0.3545628967285156	0		3.3389599609375	-0.08609807586669922	0		4.41678125	0.15223377990722656	0		5.9361044921875	0.32367657470703126	0		-0.43464300537109374	5.84307080078125	0		
